<svg width="36" height="36" viewBox="0 0 36 36" fill="none" xmlns="http://www.w3.org/2000/svg">
<path d="M28.9052 7.995C26.9102 7.065 24.7502 6.39 22.5002 6C22.4606 6.00056 22.4229 6.01674 22.3952 6.045C22.1252 6.54 21.8102 7.185 21.6002 7.68C19.2137 7.32023 16.7867 7.32023 14.4002 7.68C14.1902 7.17 13.8752 6.54 13.5902 6.045C13.5752 6.015 13.5302 6 13.4852 6C11.2352 6.39 9.09018 7.065 7.08018 7.995C7.06518 7.995 7.05018 8.01 7.03518 8.025C2.95518 14.13 1.83018 20.07 2.38518 25.95C2.38518 25.98 2.40018 26.01 2.43018 26.025C5.13018 28.005 7.72518 29.205 10.2902 30C10.3352 30.015 10.3802 30 10.3952 29.97C10.9952 29.145 11.5352 28.275 12.0002 27.36C12.0302 27.3 12.0002 27.24 11.9402 27.225C11.0852 26.895 10.2752 26.505 9.48018 26.055C9.42018 26.025 9.42018 25.935 9.46518 25.89C9.63018 25.77 9.79518 25.635 9.96018 25.515C9.99018 25.485 10.0352 25.485 10.0652 25.5C15.2252 27.855 20.7902 27.855 25.8902 25.5C25.9202 25.485 25.9652 25.485 25.9952 25.515C26.1602 25.65 26.3252 25.77 26.4902 25.905C26.5502 25.95 26.5502 26.04 26.4752 26.07C25.6952 26.535 24.8702 26.91 24.0152 27.24C23.9552 27.255 23.9402 27.33 23.9552 27.375C24.4352 28.29 24.9752 29.16 25.5602 29.985C25.6052 30 25.6502 30.015 25.6952 30C28.2752 29.205 30.8702 28.005 33.5702 26.025C33.6002 26.01 33.6152 25.98 33.6152 25.95C34.2752 19.155 32.5202 13.26 28.9652 8.025C28.9502 8.01 28.9352 7.995 28.9052 7.995ZM12.7802 22.365C11.2352 22.365 9.94518 20.94 9.94518 19.185C9.94518 17.43 11.2052 16.005 12.7802 16.005C14.3702 16.005 15.6302 17.445 15.6152 19.185C15.6152 20.94 14.3552 22.365 12.7802 22.365ZM23.2352 22.365C21.6902 22.365 20.4002 20.94 20.4002 19.185C20.4002 17.43 21.6602 16.005 23.2352 16.005C24.8252 16.005 26.0852 17.445 26.0702 19.185C26.0702 20.94 24.8252 22.365 23.2352 22.365Z" fill="#FFFAFA"/>
</svg>
