<svg width="34" height="34" viewBox="0 0 34 34" fill="none" xmlns="http://www.w3.org/2000/svg">
<path d="M9.83171 7.08377C9.83133 7.83522 9.53246 8.55574 9.00084 9.08683C8.46922 9.61792 7.7484 9.91607 6.99696 9.91569C6.24551 9.91531 5.52499 9.61644 4.9939 9.08482C4.46281 8.55321 4.16466 7.83239 4.16504 7.08094C4.16542 6.32949 4.46429 5.60897 4.99591 5.07789C5.52752 4.5468 6.24834 4.24865 6.99979 4.24902C7.75124 4.2494 8.47176 4.54827 9.00284 5.07989C9.53393 5.61151 9.83208 6.33233 9.83171 7.08377ZM9.91671 12.0138H4.25004V29.7504H9.91671V12.0138ZM18.87 12.0138H13.2317V29.7504H18.8134V20.4429C18.8134 15.2579 25.5709 14.7763 25.5709 20.4429V29.7504H31.1667V18.5163C31.1667 9.77544 21.165 10.1013 18.8134 14.3938L18.87 12.0138Z" fill="#FFFAFA"/>
</svg>
