<svg width="40" height="40" viewBox="0 0 40 40" fill="none" xmlns="http://www.w3.org/2000/svg">
<g clip-path="url(#clip0_72_829)">
<rect width="40" height="40" rx="10" fill="#9F9F9F"/>
<path d="M26 12V13M26 17V18M26 22V23M26 27V28M14 21H21M14 24H18M8.5 11C7.672 11 7 11.672 7 12.5V16.5347C7.609 16.8853 8.11483 17.3902 8.46656 17.9986C8.81828 18.607 9.00347 19.2973 9.00347 20C9.00347 20.7027 8.81828 21.393 8.46656 22.0014C8.11483 22.6098 7.609 23.1147 7 23.4653V27.5C7 28.328 7.672 29 8.5 29H31.5C32.328 29 33 28.328 33 27.5V23.4653C32.391 23.1147 31.8852 22.6098 31.5334 22.0014C31.1817 21.393 30.9965 20.7027 30.9965 20C30.9965 19.2973 31.1817 18.607 31.5334 17.9986C31.8852 17.3902 32.391 16.8853 33 16.5347V12.5C33 11.672 32.328 11 31.5 11H8.5Z" stroke="white" stroke-width="2" stroke-linecap="round" stroke-linejoin="round"/>
</g>
<defs>
<clipPath id="clip0_72_829">
<rect width="40" height="40" rx="10" fill="white"/>
</clipPath>
</defs>
</svg>
