<svg width="39" height="38" viewBox="0 0 39 38" fill="none" xmlns="http://www.w3.org/2000/svg">
<path d="M26.9748 9.215C25.8642 7.97925 25.2521 6.39255 25.2523 4.75H20.231V24.3833C20.1931 25.4461 19.733 26.4529 18.9478 27.1914C18.1625 27.9299 17.1136 28.3423 16.0223 28.3417C13.7148 28.3417 11.7973 26.505 11.7973 24.225C11.7973 21.5017 14.4948 19.4592 17.2735 20.2983V15.295C11.6673 14.5667 6.75977 18.81 6.75977 24.225C6.75977 29.4975 11.2448 33.25 16.006 33.25C21.1085 33.25 25.2523 29.2125 25.2523 24.225V14.2658C27.2884 15.6906 29.733 16.455 32.2398 16.4508V11.5583C32.2398 11.5583 29.1848 11.7008 26.9748 9.215Z" fill="#FFFAFA"/>
</svg>
